{
  "accessors": [
    {
      "bufferView": 2,
      "componentType": 5126,
      "count": 26568,
      "max": [
        7.8133468627929688,
        1.0035157203674316,
        4.8283486366271973
      ],
      "min": [
        -7.8133478164672852,
        -14.420912742614746,
        -8.0697746276855469
      ],
      "type": "VEC3"
    },
    {
      "bufferView": 2,
      "byteOffset": 318816,
      "componentType": 5126,
      "count": 26568,
      "max": [
        0.99999582767486572,
        0.99997365474700928,
        0.97117233276367188
      ],
      "min": [
        -0.99999582767486572,
        -0.92081636190414429,
        -0.82700932025909424
      ],
      "type": "VEC3"
    },
    {
      "bufferView": 1,
      "componentType": 5126,
      "count": 26568,
      "max": [
        0.98946940898895264,
        0.99132627248764038
      ],
      "min": [
        0.0088963918387889862,
        0.0091652870178222656
      ],
      "type": "VEC2"
    },
    {
      "bufferView": 0,
      "componentType": 5125,
      "count": 145152,
      "max": [
        26567
      ],
      "min": [
        0
      ],
      "type": "SCALAR"
    }
  ],
  "asset": {
    "extras": {
      "author": "andrewmatus3 (https://sketchfab.com/andrewmatus3)",
      "license": "CC-BY-4.0 (http://creativecommons.org/licenses/by/4.0/)",
      "source": "https://sketchfab.com/3d-models/face-protection-dust-musk-7262f97b26b34d55b57a80ff70f34336",
      "title": "Face Protection Dust Musk"
    },
    "generator": "Sketchfab-8.42.0",
    "version": "2.0"
  },
  "bufferViews": [
    {
      "buffer": 0,
      "byteLength": 580608,
      "byteOffset": 0,
      "name": "floatBufferViews",
      "target": 34963
    },
    {
      "buffer": 0,
      "byteLength": 212544,
      "byteOffset": 580608,
      "byteStride": 8,
      "name": "floatBufferViews",
      "target": 34962
    },
    {
      "buffer": 0,
      "byteLength": 637632,
      "byteOffset": 793152,
      "byteStride": 12,
      "name": "floatBufferViews",
      "target": 34962
    }
  ],
  "buffers": [
    {
      "byteLength": 1430784,
      "uri": "scene.bin"
    }
  ],
  "materials": [
    {
      "doubleSided": true,
      "emissiveFactor": [
        0,
        0,
        0
      ],
      "name": "lambert1",
      "pbrMetallicRoughness": {
        "baseColorFactor": [
          0,
          0,
          0,
          1
        ],
        "metallicFactor": 0,
        "roughnessFactor": 0.59999999999999998
      }
    }
  ],
  "meshes": [
    {
      "name": "Plane_lambert1_0",
      "primitives": [
        {
          "attributes": {
            "NORMAL": 1,
            "POSITION": 0,
            "TEXCOORD_0": 2
          },
          "indices": 3,
          "material": 0,
          "mode": 4
        }
      ]
    }
  ],
  "nodes": [
    {
      "children": [
        1
      ],
      "name": "RootNode (gltf orientation matrix)",
      "rotation": [
        -0.70710678118654746,
        -0,
        -0,
        0.70710678118654757
      ]
    },
    {
      "children": [
        2
      ],
      "name": "RootNode (model correction matrix)"
    },
    {
      "children": [
        3
      ],
      "matrix": [
        1,
        0,
        0,
        0,
        0,
        0,
        1,
        0,
        0,
        -1,
        0,
        0,
        0,
        0,
        0,
        1
      ],
      "name": "5df516bb29a04b6aacb4ea9b47849d36.fbx"
    },
    {
      "children": [
        4
      ],
      "name": "RootNode"
    },
    {
      "children": [
        5
      ],
      "matrix": [
        1,
        0,
        0,
        0,
        0,
        2.2204460492503131e-16,
        1,
        0,
        0,
        -1,
        2.2204460492503131e-16,
        0,
        0,
        -4.0318255424499512,
        7.9227571487426758,
        1
      ],
      "name": "Mask"
    },
    {
      "children": [
        6
      ],
      "name": "Plane"
    },
    {
      "mesh": 0,
      "name": "Plane_lambert1_0"
    }
  ],
  "scene": 0,
  "scenes": [
    {
      "name": "OSG_Scene",
      "nodes": [
        0
      ]
    }
  ]
}

