{
  "accessors": [
    {
      "bufferView": 2,
      "componentType": 5126,
      "count": 65534,
      "max": [
        12.215924263000488,
        4.4365472793579102,
        3.6239593029022217
      ],
      "min": [
        -11.255242347717285,
        -2.0205700397491455,
        -7.3842144012451172
      ],
      "type": "VEC3"
    },
    {
      "bufferView": 2,
      "byteOffset": 786408,
      "componentType": 5126,
      "count": 65534,
      "max": [
        0.99999994039535522,
        1,
        0.99999815225601196
      ],
      "min": [
        -0.99999886751174927,
        -0.99999874830245972,
        -0.99999874830245972
      ],
      "type": "VEC3"
    },
    {
      "bufferView": 1,
      "componentType": 5126,
      "count": 65534,
      "max": [
        0.99974101781845093,
        0.99975597858428955
      ],
      "min": [
        0.00024399999529123306,
        0.00024799999664537609
      ],
      "type": "VEC2"
    },
    {
      "bufferView": 0,
      "componentType": 5125,
      "count": 263274,
      "max": [
        65533
      ],
      "min": [
        0
      ],
      "type": "SCALAR"
    },
    {
      "bufferView": 2,
      "byteOffset": 1572816,
      "componentType": 5126,
      "count": 65532,
      "max": [
        0.27796581387519836,
        4.4365358352661133,
        2.4481360912322998
      ],
      "min": [
        -11.237246513366699,
        -2.9434914588928223,
        -7.3787226676940918
      ],
      "type": "VEC3"
    },
    {
      "bufferView": 2,
      "byteOffset": 2359200,
      "componentType": 5126,
      "count": 65532,
      "max": [
        0.99998670816421509,
        0.99251240491867065,
        0.99999594688415527
      ],
      "min": [
        -0.99996054172515869,
        -1,
        -0.99997484683990479
      ],
      "type": "VEC3"
    },
    {
      "bufferView": 1,
      "byteOffset": 524272,
      "componentType": 5126,
      "count": 65532,
      "max": [
        0.99975299835205078,
        0.99975597858428955
      ],
      "min": [
        0.00024399999529123306,
        0.00024799999664537609
      ],
      "type": "VEC2"
    },
    {
      "bufferView": 0,
      "byteOffset": 1053096,
      "componentType": 5125,
      "count": 194091,
      "max": [
        65531
      ],
      "min": [
        0
      ],
      "type": "SCALAR"
    },
    {
      "bufferView": 2,
      "byteOffset": 3145584,
      "componentType": 5126,
      "count": 65533,
      "max": [
        9.6322498321533203,
        4.4365448951721191,
        3.6170754432678223
      ],
      "min": [
        -8.7503519058227539,
        -5.1856012344360352,
        -7.3745779991149902
      ],
      "type": "VEC3"
    },
    {
      "bufferView": 2,
      "byteOffset": 3931980,
      "componentType": 5126,
      "count": 65533,
      "max": [
        0.99999320507049561,
        1,
        0.99999868869781494
      ],
      "min": [
        -0.99964427947998047,
        -0.99999535083770752,
        -0.99999630451202393
      ],
      "type": "VEC3"
    },
    {
      "bufferView": 1,
      "byteOffset": 1048528,
      "componentType": 5126,
      "count": 65533,
      "max": [
        0.99973499774932861,
        0.99975597858428955
      ],
      "min": [
        0.00024399999529123306,
        0.00025099999038502574
      ],
      "type": "VEC2"
    },
    {
      "bufferView": 0,
      "byteOffset": 1829460,
      "componentType": 5125,
      "count": 170130,
      "max": [
        65532
      ],
      "min": [
        0
      ],
      "type": "SCALAR"
    },
    {
      "bufferView": 2,
      "byteOffset": 4718376,
      "componentType": 5126,
      "count": 65532,
      "max": [
        9.6024541854858398,
        4.4365167617797852,
        2.0089483261108398
      ],
      "min": [
        -0.33881217241287231,
        -2.7824678421020508,
        -6.1722393035888672
      ],
      "type": "VEC3"
    },
    {
      "bufferView": 2,
      "byteOffset": 5504760,
      "componentType": 5126,
      "count": 65532,
      "max": [
        0.99995976686477661,
        1,
        0.99994266033172607
      ],
      "min": [
        -0.99999064207077026,
        -0.99999892711639404,
        -0.9999697208404541
      ],
      "type": "VEC3"
    },
    {
      "bufferView": 1,
      "byteOffset": 1572792,
      "componentType": 5126,
      "count": 65532,
      "max": [
        0.99975001811981201,
        0.99975597858428955
      ],
      "min": [
        0.00024399999529123306,
        0.00025199999799951911
      ],
      "type": "VEC2"
    },
    {
      "bufferView": 0,
      "byteOffset": 2509980,
      "componentType": 5125,
      "count": 170433,
      "max": [
        65531
      ],
      "min": [
        0
      ],
      "type": "SCALAR"
    },
    {
      "bufferView": 2,
      "byteOffset": 6291144,
      "componentType": 5126,
      "count": 39719,
      "max": [
        12.216809272766113,
        4.4365353584289551,
        3.5988845825195312
      ],
      "min": [
        -8.7721614837646484,
        -3.1235270500183105,
        -7.3622269630432129
      ],
      "type": "VEC3"
    },
    {
      "bufferView": 2,
      "byteOffset": 6767772,
      "componentType": 5126,
      "count": 39719,
      "max": [
        0.99991965293884277,
        1,
        0.99997782707214355
      ],
      "min": [
        -0.9995722770690918,
        -0.99999845027923584,
        -0.9999578595161438
      ],
      "type": "VEC3"
    },
    {
      "bufferView": 1,
      "byteOffset": 2097048,
      "componentType": 5126,
      "count": 39719,
      "max": [
        0.99975597858428955,
        0.99975597858428955
      ],
      "min": [
        0.00024399999529123306,
        0.00025099999038502574
      ],
      "type": "VEC2"
    },
    {
      "bufferView": 0,
      "byteOffset": 3191712,
      "componentType": 5125,
      "count": 95499,
      "max": [
        39718
      ],
      "min": [
        0
      ],
      "type": "SCALAR"
    },
    {
      "bufferView": 2,
      "byteOffset": 7244400,
      "componentType": 5126,
      "count": 65532,
      "max": [
        12.208155632019043,
        4.4365472793579102,
        3.6239874362945557
      ],
      "min": [
        -11.255242347717285,
        -2.9434914588928223,
        -7.3842144012451172
      ],
      "type": "VEC3"
    },
    {
      "bufferView": 2,
      "byteOffset": 8030784,
      "componentType": 5126,
      "count": 65532,
      "max": [
        0.99999570846557617,
        1,
        0.99999791383743286
      ],
      "min": [
        -0.99999827146530151,
        -0.99999809265136719,
        -0.99999946355819702
      ],
      "type": "VEC3"
    },
    {
      "bufferView": 1,
      "byteOffset": 2414800,
      "componentType": 5126,
      "count": 65532,
      "max": [
        1.9997539520263672,
        0.99877899885177612
      ],
      "min": [
        1.0002440214157104,
        0.00026299999444745481
      ],
      "type": "VEC2"
    },
    {
      "bufferView": 0,
      "byteOffset": 3573708,
      "componentType": 5125,
      "count": 200502,
      "max": [
        65531
      ],
      "min": [
        0
      ],
      "type": "SCALAR"
    },
    {
      "bufferView": 2,
      "byteOffset": 8817168,
      "componentType": 5126,
      "count": 65532,
      "max": [
        9.5994720458984375,
        4.436457633972168,
        3.6182973384857178
      ],
      "min": [
        -3.6481282711029053,
        -5.1856012344360352,
        -5.1609053611755371
      ],
      "type": "VEC3"
    },
    {
      "bufferView": 2,
      "byteOffset": 9603552,
      "componentType": 5126,
      "count": 65532,
      "max": [
        0.99994832277297974,
        0.99853020906448364,
        0.99999982118606567
      ],
      "min": [
        -0.99982595443725586,
        -0.99999868869781494,
        -0.99999302625656128
      ],
      "type": "VEC3"
    },
    {
      "bufferView": 1,
      "byteOffset": 2939056,
      "componentType": 5126,
      "count": 65532,
      "max": [
        1.999750018119812,
        0.99682599306106567
      ],
      "min": [
        1.0002440214157104,
        0.00028199999360367656
      ],
      "type": "VEC2"
    },
    {
      "bufferView": 0,
      "byteOffset": 4375716,
      "componentType": 5125,
      "count": 223872,
      "max": [
        65531
      ],
      "min": [
        0
      ],
      "type": "SCALAR"
    },
    {
      "bufferView": 2,
      "byteOffset": 10389936,
      "componentType": 5126,
      "count": 62075,
      "max": [
        12.216809272766113,
        4.4365344047546387,
        3.6004347801208496
      ],
      "min": [
        -8.6293840408325195,
        -3.0889503955841064,
        -7.3622221946716309
      ],
      "type": "VEC3"
    },
    {
      "bufferView": 2,
      "byteOffset": 11134836,
      "componentType": 5126,
      "count": 62075,
      "max": [
        0.99999511241912842,
        1,
        0.99999648332595825
      ],
      "min": [
        -0.99965053796768188,
        -0.99999606609344482,
        -0.99999374151229858
      ],
      "type": "VEC3"
    },
    {
      "bufferView": 1,
      "byteOffset": 3463312,
      "componentType": 5126,
      "count": 62075,
      "max": [
        1.9997429847717285,
        0.99682599306106567
      ],
      "min": [
        1.0002440214157104,
        0.00024399999529123306
      ],
      "type": "VEC2"
    },
    {
      "bufferView": 0,
      "byteOffset": 5271204,
      "componentType": 5125,
      "count": 181875,
      "max": [
        62074
      ],
      "min": [
        0
      ],
      "type": "SCALAR"
    }
  ],
  "asset": {
    "extras": {
      "author": "Shahriar Shahrabi (https://sketchfab.com/shahriyarshahrabi)",
      "license": "CC-BY-4.0 (http://creativecommons.org/licenses/by/4.0/)",
      "source": "https://sketchfab.com/3d-models/tris-knodel-54111fd2a1714122bfd0c755259795f5",
      "title": "Tris Knödel"
    },
    "generator": "Sketchfab-9.3.0",
    "version": "2.0"
  },
  "bufferViews": [
    {
      "buffer": 0,
      "byteLength": 5998704,
      "byteOffset": 0,
      "name": "floatBufferViews",
      "target": 34963
    },
    {
      "buffer": 0,
      "byteLength": 3959912,
      "byteOffset": 5998704,
      "byteStride": 8,
      "name": "floatBufferViews",
      "target": 34962
    },
    {
      "buffer": 0,
      "byteLength": 11879736,
      "byteOffset": 9958616,
      "byteStride": 12,
      "name": "floatBufferViews",
      "target": 34962
    }
  ],
  "buffers": [
    {
      "byteLength": 21838352,
      "uri": "scene.bin"
    }
  ],
  "extensionsUsed": [
    "KHR_materials_unlit"
  ],
  "images": [
    {
      "uri": "textures/trisKnoedel_Model_9_u1_v1_baseColor.jpeg"
    },
    {
      "uri": "textures/trisKnoedel_Model_9_u2_v1_baseColor.jpeg"
    }
  ],
  "materials": [
    {
      "doubleSided": false,
      "extensions": {
        "KHR_materials_unlit": {}
      },
      "name": "trisKnoedel_Model_9_u1_v1",
      "pbrMetallicRoughness": {
        "baseColorFactor": [
          1,
          1,
          1,
          1
        ],
        "baseColorTexture": {
          "index": 0,
          "texCoord": 0
        },
        "metallicFactor": 0,
        "roughnessFactor": 1
      }
    },
    {
      "doubleSided": false,
      "extensions": {
        "KHR_materials_unlit": {}
      },
      "name": "trisKnoedel_Model_9_u2_v1",
      "pbrMetallicRoughness": {
        "baseColorFactor": [
          1,
          1,
          1,
          1
        ],
        "baseColorTexture": {
          "index": 1,
          "texCoord": 0
        },
        "metallicFactor": 0,
        "roughnessFactor": 1
      }
    }
  ],
  "meshes": [
    {
      "primitives": [
        {
          "attributes": {
            "NORMAL": 1,
            "POSITION": 0,
            "TEXCOORD_0": 2
          },
          "indices": 3,
          "material": 0,
          "mode": 4
        }
      ]
    },
    {
      "primitives": [
        {
          "attributes": {
            "NORMAL": 5,
            "POSITION": 4,
            "TEXCOORD_0": 6
          },
          "indices": 7,
          "material": 0,
          "mode": 4
        }
      ]
    },
    {
      "primitives": [
        {
          "attributes": {
            "NORMAL": 9,
            "POSITION": 8,
            "TEXCOORD_0": 10
          },
          "indices": 11,
          "material": 0,
          "mode": 4
        }
      ]
    },
    {
      "primitives": [
        {
          "attributes": {
            "NORMAL": 13,
            "POSITION": 12,
            "TEXCOORD_0": 14
          },
          "indices": 15,
          "material": 0,
          "mode": 4
        }
      ]
    },
    {
      "primitives": [
        {
          "attributes": {
            "NORMAL": 17,
            "POSITION": 16,
            "TEXCOORD_0": 18
          },
          "indices": 19,
          "material": 0,
          "mode": 4
        }
      ]
    },
    {
      "primitives": [
        {
          "attributes": {
            "NORMAL": 21,
            "POSITION": 20,
            "TEXCOORD_0": 22
          },
          "indices": 23,
          "material": 1,
          "mode": 4
        }
      ]
    },
    {
      "primitives": [
        {
          "attributes": {
            "NORMAL": 25,
            "POSITION": 24,
            "TEXCOORD_0": 26
          },
          "indices": 27,
          "material": 1,
          "mode": 4
        }
      ]
    },
    {
      "primitives": [
        {
          "attributes": {
            "NORMAL": 29,
            "POSITION": 28,
            "TEXCOORD_0": 30
          },
          "indices": 31,
          "material": 1,
          "mode": 4
        }
      ]
    }
  ],
  "nodes": [
    {
      "children": [
        1
      ],
      "name": "RootNode (gltf orientation matrix)",
      "rotation": [
        -0.70710678118654746,
        -0,
        -0,
        0.70710678118654757
      ]
    },
    {
      "children": [
        2
      ],
      "matrix": [
        1,
        1.6081220935621371e-16,
        1.2812939800506315e-19,
        0,
        2.4651903288156619e-32,
        0.000796763866674155,
        -0.99999970197677612,
        0,
        -1.6081226229577292e-16,
        0.99999970197677612,
        0.000796763866674155,
        0,
        -2.7755575615628914e-16,
        1.5059123039245605,
        -2.2531554698944092,
        1
      ],
      "name": "RootNode (model correction matrix)"
    },
    {
      "children": [
        3,
        4,
        5,
        6,
        7,
        8,
        9,
        10
      ],
      "name": "trisKnoedel_Model_9.obj.cleaner.materialmerger.gles"
    },
    {
      "mesh": 0,
      "name": ""
    },
    {
      "mesh": 1,
      "name": ""
    },
    {
      "mesh": 2,
      "name": ""
    },
    {
      "mesh": 3,
      "name": ""
    },
    {
      "mesh": 4,
      "name": ""
    },
    {
      "mesh": 5,
      "name": ""
    },
    {
      "mesh": 6,
      "name": ""
    },
    {
      "mesh": 7,
      "name": ""
    }
  ],
  "samplers": [
    {
      "magFilter": 9729,
      "minFilter": 9987,
      "wrapS": 10497,
      "wrapT": 10497
    }
  ],
  "scene": 0,
  "scenes": [
    {
      "name": "OSG_Scene",
      "nodes": [
        0
      ]
    }
  ],
  "textures": [
    {
      "sampler": 0,
      "source": 0
    },
    {
      "sampler": 0,
      "source": 1
    }
  ]
}

