{
  "accessors": [
    {
      "bufferView": 2,
      "componentType": 5126,
      "count": 4842,
      "max": [
        0.7562670111656189,
        -0.00011600000289035961,
        2.0855050086975098
      ],
      "min": [
        0.58308202028274536,
        -0.080115996301174164,
        1.9405980110168457
      ],
      "type": "VEC3"
    },
    {
      "bufferView": 2,
      "byteOffset": 58104,
      "componentType": 5126,
      "count": 4842,
      "max": [
        1,
        1,
        1
      ],
      "min": [
        -1,
        -1,
        -1
      ],
      "type": "VEC3"
    },
    {
      "bufferView": 1,
      "componentType": 5126,
      "count": 4842,
      "max": [
        1,
        1
      ],
      "min": [
        0,
        0
      ],
      "type": "VEC2"
    },
    {
      "bufferView": 0,
      "componentType": 5125,
      "count": 21348,
      "max": [
        4841
      ],
      "min": [
        0
      ],
      "type": "SCALAR"
    },
    {
      "bufferView": 2,
      "byteOffset": 116208,
      "componentType": 5126,
      "count": 3171,
      "max": [
        0.72374099493026733,
        0.037303000688552856,
        1.1613199710845947
      ],
      "min": [
        0.65366899967193604,
        -0.12231100350618362,
        1.0017050504684448
      ],
      "type": "VEC3"
    },
    {
      "bufferView": 2,
      "byteOffset": 154260,
      "componentType": 5126,
      "count": 3171,
      "max": [
        1,
        1,
        1
      ],
      "min": [
        -1,
        -1,
        -1
      ],
      "type": "VEC3"
    },
    {
      "bufferView": 1,
      "byteOffset": 38736,
      "componentType": 5126,
      "count": 3171,
      "max": [
        1,
        1
      ],
      "min": [
        0,
        0
      ],
      "type": "VEC2"
    },
    {
      "bufferView": 0,
      "byteOffset": 85392,
      "componentType": 5125,
      "count": 14364,
      "max": [
        3170
      ],
      "min": [
        0
      ],
      "type": "SCALAR"
    },
    {
      "bufferView": 2,
      "byteOffset": 192312,
      "componentType": 5126,
      "count": 9,
      "max": [
        0,
        -0.50348401069641113,
        0.0057629998773336411
      ],
      "min": [
        0,
        -0.50348401069641113,
        0
      ],
      "type": "VEC3"
    },
    {
      "bufferView": 0,
      "byteOffset": 142848,
      "componentType": 5125,
      "count": 16,
      "max": [
        8
      ],
      "min": [
        0
      ],
      "type": "SCALAR"
    },
    {
      "bufferView": 2,
      "byteOffset": 192420,
      "componentType": 5126,
      "count": 15148,
      "max": [
        0.64321297407150269,
        -0.0021750000305473804,
        1.9915200471878052
      ],
      "min": [
        0.58393102884292603,
        -0.078056000173091888,
        1.9409370422363281
      ],
      "type": "VEC3"
    },
    {
      "bufferView": 2,
      "byteOffset": 374196,
      "componentType": 5126,
      "count": 15148,
      "max": [
        0.76451122760772705,
        0.99987030029296875,
        0.76483339071273804
      ],
      "min": [
        -0.9980093240737915,
        -0.99987030029296875,
        -0.99011749029159546
      ],
      "type": "VEC3"
    },
    {
      "bufferView": 1,
      "byteOffset": 64104,
      "componentType": 5126,
      "count": 15148,
      "max": [
        0.97764497995376587,
        0.47764500975608826
      ],
      "min": [
        0,
        0
      ],
      "type": "VEC2"
    },
    {
      "bufferView": 0,
      "byteOffset": 142912,
      "componentType": 5125,
      "count": 51306,
      "max": [
        15147
      ],
      "min": [
        0
      ],
      "type": "SCALAR"
    },
    {
      "bufferView": 2,
      "byteOffset": 555972,
      "componentType": 5126,
      "count": 1616,
      "max": [
        0.029588999226689339,
        0.015116999857127666,
        -5.6000000768108293e-05
      ],
      "min": [
        -0.029588999226689339,
        -0.040692001581192017,
        -0.0020210000220686197
      ],
      "type": "VEC3"
    },
    {
      "bufferView": 2,
      "byteOffset": 575364,
      "componentType": 5126,
      "count": 1616,
      "max": [
        0.9997602105140686,
        0.99980992078781128,
        1
      ],
      "min": [
        -0.9997602105140686,
        -0.99980992078781128,
        -0.73868703842163086
      ],
      "type": "VEC3"
    },
    {
      "bufferView": 1,
      "byteOffset": 185288,
      "componentType": 5126,
      "count": 1616,
      "max": [
        0,
        0
      ],
      "min": [
        0,
        0
      ],
      "type": "VEC2"
    },
    {
      "bufferView": 0,
      "byteOffset": 348136,
      "componentType": 5125,
      "count": 7590,
      "max": [
        1615
      ],
      "min": [
        0
      ],
      "type": "SCALAR"
    },
    {
      "bufferView": 2,
      "byteOffset": 594756,
      "componentType": 5126,
      "count": 12312,
      "max": [
        0.76490801572799683,
        -0.34882199764251709,
        1.9400639533996582
      ],
      "min": [
        -0.76490801572799683,
        -0.44534200429916382,
        1.8804969787597656
      ],
      "type": "VEC3"
    },
    {
      "bufferView": 2,
      "byteOffset": 742500,
      "componentType": 5126,
      "count": 12312,
      "max": [
        1,
        0.99996471405029297,
        1
      ],
      "min": [
        -1,
        -0.99996471405029297,
        -1
      ],
      "type": "VEC3"
    },
    {
      "bufferView": 1,
      "byteOffset": 198216,
      "componentType": 5126,
      "count": 12312,
      "max": [
        1,
        1
      ],
      "min": [
        0,
        0
      ],
      "type": "VEC2"
    },
    {
      "bufferView": 0,
      "byteOffset": 378496,
      "componentType": 5125,
      "count": 65016,
      "max": [
        12311
      ],
      "min": [
        0
      ],
      "type": "SCALAR"
    },
    {
      "bufferView": 2,
      "byteOffset": 890244,
      "componentType": 5126,
      "count": 19530,
      "max": [
        0.72687298059463501,
        0.35254299640655518,
        1.8005789518356323
      ],
      "min": [
        -0.72687298059463501,
        -0.49244099855422974,
        0.0030799999367445707
      ],
      "type": "VEC3"
    },
    {
      "bufferView": 2,
      "byteOffset": 1124604,
      "componentType": 5126,
      "count": 19530,
      "max": [
        1,
        0.38160905241966248,
        0.9999997615814209
      ],
      "min": [
        -1,
        -1,
        -0.0012000268325209618
      ],
      "type": "VEC3"
    },
    {
      "bufferView": 3,
      "componentType": 5126,
      "count": 19530,
      "max": [
        1,
        1,
        0.99658256769180298,
        1
      ],
      "min": [
        -0.38160958886146545,
        -1,
        -0.99658256769180298,
        1
      ],
      "type": "VEC4"
    },
    {
      "bufferView": 1,
      "byteOffset": 296712,
      "componentType": 5126,
      "count": 19530,
      "max": [
        3.3602769374847412,
        10.983634948730469
      ],
      "min": [
        -2.3602769374847412,
        -0.27000001072883606
      ],
      "type": "VEC2"
    },
    {
      "bufferView": 0,
      "byteOffset": 638560,
      "componentType": 5125,
      "count": 112128,
      "max": [
        19529
      ],
      "min": [
        0
      ],
      "type": "SCALAR"
    },
    {
      "bufferView": 2,
      "byteOffset": 1358964,
      "componentType": 5126,
      "count": 44858,
      "max": [
        0.76518899202346802,
        0.38227599859237671,
        1.8005820512771606
      ],
      "min": [
        -0.76518899202346802,
        -0.50348401069641113,
        -0.0014070000033825636
      ],
      "type": "VEC3"
    },
    {
      "bufferView": 2,
      "byteOffset": 1897260,
      "componentType": 5126,
      "count": 44858,
      "max": [
        0.99999845027923584,
        1,
        1
      ],
      "min": [
        -0.99999845027923584,
        -1,
        -0.0012000268325209618
      ],
      "type": "VEC3"
    },
    {
      "bufferView": 1,
      "byteOffset": 452952,
      "componentType": 5126,
      "count": 44858,
      "max": [
        3.3847479820251465,
        10.979524612426758
      ],
      "min": [
        -2.3847479820251465,
        -2.8767769336700439
      ],
      "type": "VEC2"
    },
    {
      "bufferView": 0,
      "byteOffset": 1087072,
      "componentType": 5125,
      "count": 250752,
      "max": [
        44857
      ],
      "min": [
        0
      ],
      "type": "SCALAR"
    }
  ],
  "asset": {
    "extras": {
      "author": "OTZ (https://sketchfab.com/OTZ_3D)",
      "license": "CC-BY-4.0 (http://creativecommons.org/licenses/by/4.0/)",
      "source": "https://sketchfab.com/3d-models/shower-0c13f9ea6efc42e2ba1bda655df2da3f",
      "title": "Shower"
    },
    "generator": "Sketchfab-9.34.0",
    "version": "2.0"
  },
  "bufferViews": [
    {
      "buffer": 0,
      "byteLength": 2090080,
      "byteOffset": 0,
      "name": "floatBufferViews",
      "target": 34963
    },
    {
      "buffer": 0,
      "byteLength": 811816,
      "byteOffset": 2090080,
      "byteStride": 8,
      "name": "floatBufferViews",
      "target": 34962
    },
    {
      "buffer": 0,
      "byteLength": 2435556,
      "byteOffset": 2901896,
      "byteStride": 12,
      "name": "floatBufferViews",
      "target": 34962
    },
    {
      "buffer": 0,
      "byteLength": 312480,
      "byteOffset": 5337452,
      "byteStride": 16,
      "name": "floatBufferViews",
      "target": 34962
    }
  ],
  "buffers": [
    {
      "byteLength": 5649932,
      "uri": "scene.bin"
    }
  ],
  "images": [
    {
      "uri": "textures/Material.005_normal.png"
    }
  ],
  "materials": [
    {
      "doubleSided": true,
      "emissiveFactor": [
        0,
        0,
        0
      ],
      "name": "INOX.001",
      "pbrMetallicRoughness": {
        "baseColorFactor": [
          0.80000000000000004,
          0.80000000000000004,
          0.80000000000000004,
          1
        ],
        "metallicFactor": 1,
        "roughnessFactor": 0
      }
    },
    {
      "doubleSided": true,
      "emissiveFactor": [
        0,
        0,
        0
      ],
      "name": "INOX.005",
      "pbrMetallicRoughness": {
        "baseColorFactor": [
          0.80000000000000004,
          0.80000000000000004,
          0.80000000000000004,
          1
        ],
        "metallicFactor": 1,
        "roughnessFactor": 0
      }
    },
    {
      "doubleSided": true,
      "emissiveFactor": [
        0,
        0,
        0
      ],
      "name": "Material.001",
      "pbrMetallicRoughness": {
        "baseColorFactor": [
          0.029099,
          0.029099,
          0.029099,
          1
        ],
        "metallicFactor": 0,
        "roughnessFactor": 0.87838503604511065
      }
    },
    {
      "doubleSided": true,
      "emissiveFactor": [
        0,
        0,
        0
      ],
      "name": "Material.002",
      "pbrMetallicRoughness": {
        "baseColorFactor": [
          0.80000000000000004,
          0.80000000000000004,
          0.80000000000000004,
          1
        ],
        "metallicFactor": 1,
        "roughnessFactor": 0
      }
    },
    {
      "doubleSided": true,
      "emissiveFactor": [
        0,
        0,
        0
      ],
      "name": "Material.003",
      "pbrMetallicRoughness": {
        "baseColorFactor": [
          0.80000000000000004,
          0.80000000000000004,
          0.80000000000000004,
          1
        ],
        "metallicFactor": 1,
        "roughnessFactor": 0.65780025415123822
      }
    },
    {
      "doubleSided": true,
      "name": "Material.005",
      "normalTexture": {
        "index": 0,
        "scale": 0.32395922635876673,
        "texCoord": 0
      },
      "pbrMetallicRoughness": {
        "baseColorFactor": [
          0.45772303595206393,
          0.45772303595206393,
          0.45772303595206393,
          1
        ],
        "metallicFactor": 0.396921304318747,
        "roughnessFactor": 0.49420407493205409
      }
    },
    {
      "doubleSided": true,
      "emissiveFactor": [
        0,
        0,
        0
      ],
      "name": "Material.006",
      "pbrMetallicRoughness": {
        "baseColorFactor": [
          0.44556268962540052,
          0.44556268962540052,
          0.44556268962540052,
          1
        ],
        "metallicFactor": 0.40908165064541041,
        "roughnessFactor": 0.49420407493205409
      }
    }
  ],
  "meshes": [
    {
      "primitives": [
        {
          "attributes": {
            "NORMAL": 1,
            "POSITION": 0,
            "TEXCOORD_0": 2
          },
          "indices": 3,
          "material": 0,
          "mode": 4
        }
      ]
    },
    {
      "primitives": [
        {
          "attributes": {
            "NORMAL": 5,
            "POSITION": 4,
            "TEXCOORD_0": 6
          },
          "indices": 7,
          "material": 1,
          "mode": 4
        }
      ]
    },
    {
      "primitives": [
        {
          "attributes": {
            "POSITION": 8
          },
          "indices": 9,
          "material": 2,
          "mode": 1
        }
      ]
    },
    {
      "primitives": [
        {
          "attributes": {
            "NORMAL": 11,
            "POSITION": 10,
            "TEXCOORD_0": 12
          },
          "indices": 13,
          "material": 2,
          "mode": 4
        }
      ]
    },
    {
      "primitives": [
        {
          "attributes": {
            "NORMAL": 15,
            "POSITION": 14,
            "TEXCOORD_0": 16
          },
          "indices": 17,
          "material": 3,
          "mode": 4
        }
      ]
    },
    {
      "primitives": [
        {
          "attributes": {
            "NORMAL": 19,
            "POSITION": 18,
            "TEXCOORD_0": 20
          },
          "indices": 21,
          "material": 4,
          "mode": 4
        }
      ]
    },
    {
      "primitives": [
        {
          "attributes": {
            "NORMAL": 23,
            "POSITION": 22,
            "TANGENT": 24,
            "TEXCOORD_0": 25
          },
          "indices": 26,
          "material": 5,
          "mode": 4
        }
      ]
    },
    {
      "primitives": [
        {
          "attributes": {
            "NORMAL": 28,
            "POSITION": 27,
            "TEXCOORD_0": 29
          },
          "indices": 30,
          "material": 6,
          "mode": 4
        }
      ]
    }
  ],
  "nodes": [
    {
      "children": [
        1
      ],
      "name": "RootNode (gltf orientation matrix)",
      "rotation": [
        -0.70710678118654746,
        -0,
        -0,
        0.70710678118654757
      ]
    },
    {
      "children": [
        2
      ],
      "name": "RootNode (model correction matrix)"
    },
    {
      "children": [
        3,
        4,
        5,
        6,
        7,
        8,
        9,
        10
      ],
      "name": "box_shower(2)_1.0..obj.cleaner.materialmerger.gles"
    },
    {
      "mesh": 0,
      "name": ""
    },
    {
      "mesh": 1,
      "name": ""
    },
    {
      "mesh": 2,
      "name": ""
    },
    {
      "mesh": 3,
      "name": ""
    },
    {
      "mesh": 4,
      "name": ""
    },
    {
      "mesh": 5,
      "name": ""
    },
    {
      "mesh": 6,
      "name": ""
    },
    {
      "mesh": 7,
      "name": ""
    }
  ],
  "samplers": [
    {
      "magFilter": 9729,
      "minFilter": 9987,
      "wrapS": 10497,
      "wrapT": 10497
    }
  ],
  "scene": 0,
  "scenes": [
    {
      "name": "OSG_Scene",
      "nodes": [
        0
      ]
    }
  ],
  "textures": [
    {
      "sampler": 0,
      "source": 0
    }
  ]
}

