{
  "accessors": [
    {
      "bufferView": 2,
      "componentType": 5126,
      "count": 8619,
      "max": [
        1.2067514657974243,
        3.2095415592193604,
        1.0621203184127808
      ],
      "min": [
        -1.8908621072769165,
        0.0012147426605224609,
        -2.0175924301147461
      ],
      "type": "VEC3"
    },
    {
      "bufferView": 2,
      "byteOffset": 103428,
      "componentType": 5126,
      "count": 8619,
      "max": [
        1,
        0.9999459981918335,
        1
      ],
      "min": [
        -1,
        -0.9999459981918335,
        -1
      ],
      "type": "VEC3"
    },
    {
      "bufferView": 1,
      "componentType": 5126,
      "count": 8619,
      "max": [
        0.98692810535430908,
        1.0053530931472778
      ],
      "min": [
        0.013071894645690918,
        0.0093066394329071045
      ],
      "type": "VEC2"
    },
    {
      "bufferView": 0,
      "componentType": 5125,
      "count": 38880,
      "max": [
        8618
      ],
      "min": [
        0
      ],
      "type": "SCALAR"
    },
    {
      "bufferView": 2,
      "byteOffset": 206856,
      "componentType": 5126,
      "count": 6615,
      "max": [
        0.88642275333404541,
        3.2095415592193604,
        0.74179142713546753
      ],
      "min": [
        -1.5705333948135376,
        0.0012147426605224609,
        -1.6972637176513672
      ],
      "type": "VEC3"
    },
    {
      "bufferView": 2,
      "byteOffset": 286236,
      "componentType": 5126,
      "count": 6615,
      "max": [
        1,
        0.97146093845367432,
        1
      ],
      "min": [
        -1,
        -0.97145861387252808,
        -1
      ],
      "type": "VEC3"
    },
    {
      "bufferView": 1,
      "byteOffset": 68952,
      "componentType": 5126,
      "count": 6615,
      "max": [
        0.99259907007217407,
        0.67262661457061768
      ],
      "min": [
        0.447347491979599,
        0.34469300508499146
      ],
      "type": "VEC2"
    },
    {
      "bufferView": 0,
      "byteOffset": 155520,
      "componentType": 5125,
      "count": 25920,
      "max": [
        6614
      ],
      "min": [
        0
      ],
      "type": "SCALAR"
    }
  ],
  "asset": {
    "extras": {
      "author": "Kyle Horne (https://sketchfab.com/kylehorne)",
      "license": "CC-BY-4.0 (http://creativecommons.org/licenses/by/4.0/)",
      "source": "https://sketchfab.com/3d-models/tp-roll-pack-24x-9bcfd9d35c0243949bc026cd717d5cbd",
      "title": "TP Roll Pack 24X"
    },
    "generator": "Sketchfab-8.7.0",
    "version": "2.0"
  },
  "bufferViews": [
    {
      "buffer": 0,
      "byteLength": 259200,
      "byteOffset": 0,
      "name": "floatBufferViews",
      "target": 34963
    },
    {
      "buffer": 0,
      "byteLength": 121872,
      "byteOffset": 259200,
      "byteStride": 8,
      "name": "floatBufferViews",
      "target": 34962
    },
    {
      "buffer": 0,
      "byteLength": 365616,
      "byteOffset": 381072,
      "byteStride": 12,
      "name": "floatBufferViews",
      "target": 34962
    }
  ],
  "buffers": [
    {
      "byteLength": 746688,
      "uri": "scene.bin"
    }
  ],
  "extensionsRequired": [
    "KHR_materials_pbrSpecularGlossiness"
  ],
  "extensionsUsed": [
    "KHR_materials_pbrSpecularGlossiness"
  ],
  "materials": [
    {
      "doubleSided": true,
      "emissiveFactor": [
        0,
        0,
        0
      ],
      "extensions": {
        "KHR_materials_pbrSpecularGlossiness": {
          "diffuseFactor": [
            0.78000000000000003,
            0.75925200000000004,
            0.75036000000000003,
            1
          ],
          "glossinessFactor": 0.92074838159999994,
          "specularFactor": [
            0.013910061,
            0.013910061,
            0.013910061
          ]
        }
      },
      "name": "paper"
    },
    {
      "doubleSided": true,
      "emissiveFactor": [
        0,
        0,
        0
      ],
      "extensions": {
        "KHR_materials_pbrSpecularGlossiness": {
          "diffuseFactor": [
            0.13300000000000001,
            0.055447700000000003,
            0.022211000000000002,
            1
          ],
          "glossinessFactor": 0.32488567070000002,
          "specularFactor": [
            0.21512957320000001,
            0.21512957320000001,
            0.21512957320000001
          ]
        }
      },
      "name": "cardboard"
    }
  ],
  "meshes": [
    {
      "name": "RollStandard12_paper_0",
      "primitives": [
        {
          "attributes": {
            "NORMAL": 1,
            "POSITION": 0,
            "TEXCOORD_0": 2
          },
          "indices": 3,
          "material": 0,
          "mode": 4
        }
      ]
    },
    {
      "name": "RollStandard12_cardboard_0",
      "primitives": [
        {
          "attributes": {
            "NORMAL": 5,
            "POSITION": 4,
            "TEXCOORD_0": 6
          },
          "indices": 7,
          "material": 1,
          "mode": 4
        }
      ]
    }
  ],
  "nodes": [
    {
      "children": [
        1
      ],
      "name": "RootNode (gltf orientation matrix)",
      "rotation": [
        -0.70710678118654746,
        -0,
        -0,
        0.70710678118654757
      ]
    },
    {
      "children": [
        2
      ],
      "name": "RootNode (model correction matrix)"
    },
    {
      "children": [
        3
      ],
      "matrix": [
        1,
        0,
        0,
        0,
        0,
        0,
        1,
        0,
        0,
        -1,
        0,
        0,
        0,
        0,
        0,
        1
      ],
      "name": "d0c7c6853653440193a5017737f374b9.fbx"
    },
    {
      "children": [
        4
      ],
      "name": "RootNode"
    },
    {
      "children": [
        5,
        6
      ],
      "matrix": [
        1,
        0,
        0,
        0,
        0,
        1,
        0,
        0,
        0,
        0,
        1,
        0,
        0.34205532073974609,
        -0.0074404268525540829,
        0.47773605585098267,
        1
      ],
      "name": "RollStandard12"
    },
    {
      "mesh": 0,
      "name": "RollStandard12_paper_0"
    },
    {
      "mesh": 1,
      "name": "RollStandard12_cardboard_0"
    }
  ],
  "scene": 0,
  "scenes": [
    {
      "name": "OSG_Scene",
      "nodes": [
        0
      ]
    }
  ]
}

