{
  "accessors": [
    {
      "bufferView": 2,
      "componentType": 5126,
      "count": 4685,
      "max": [
        0.38604000210762024,
        0.82682102918624878,
        0.71815699338912964
      ],
      "min": [
        -0.38604000210762024,
        -1,
        -0.72053402662277222
      ],
      "type": "VEC3"
    },
    {
      "bufferView": 2,
      "byteOffset": 56220,
      "componentType": 5126,
      "count": 4685,
      "max": [
        1,
        1,
        0.99994176626205444
      ],
      "min": [
        -1,
        -0.99964457750320435,
        -1
      ],
      "type": "VEC3"
    },
    {
      "bufferView": 3,
      "componentType": 5126,
      "count": 4685,
      "max": [
        0.99999988079071045,
        0.98780566453933716,
        0.99999719858169556,
        1
      ],
      "min": [
        -0.99999761581420898,
        -0.99906349182128906,
        -0.9999929666519165,
        -1
      ],
      "type": "VEC4"
    },
    {
      "bufferView": 1,
      "componentType": 5126,
      "count": 4685,
      "max": [
        0.99479901790618896,
        0.9818500280380249
      ],
      "min": [
        0.004612599965184927,
        0.0053734299726784229
      ],
      "type": "VEC2"
    },
    {
      "bufferView": 0,
      "componentType": 5125,
      "count": 25350,
      "max": [
        4684
      ],
      "min": [
        0
      ],
      "type": "SCALAR"
    },
    {
      "bufferView": 2,
      "byteOffset": 112440,
      "componentType": 5126,
      "count": 1783,
      "max": [
        0.40537300705909729,
        1,
        0.72053402662277222
      ],
      "min": [
        -0.40537300705909729,
        -0.90674102306365967,
        -0.64296597242355347
      ],
      "type": "VEC3"
    },
    {
      "bufferView": 2,
      "byteOffset": 133836,
      "componentType": 5126,
      "count": 1783,
      "max": [
        0.99999350309371948,
        1,
        0.99999350309371948
      ],
      "min": [
        -0.99999350309371948,
        -0.90794229507446289,
        -0.99999350309371948
      ],
      "type": "VEC3"
    },
    {
      "bufferView": 3,
      "byteOffset": 74960,
      "componentType": 5126,
      "count": 1783,
      "max": [
        0.99999493360519409,
        0.99889600276947021,
        0.99999213218688965,
        1
      ],
      "min": [
        -0.99999833106994629,
        -0.99996083974838257,
        -0.99999040365219116,
        1
      ],
      "type": "VEC4"
    },
    {
      "bufferView": 1,
      "byteOffset": 37480,
      "componentType": 5126,
      "count": 1783,
      "max": [
        0.99537098407745361,
        0.9888949990272522
      ],
      "min": [
        0.0052366498857736588,
        0.0086849899962544441
      ],
      "type": "VEC2"
    },
    {
      "bufferView": 0,
      "byteOffset": 101400,
      "componentType": 5125,
      "count": 9000,
      "max": [
        1782
      ],
      "min": [
        0
      ],
      "type": "SCALAR"
    }
  ],
  "asset": {
    "extras": {
      "author": "paskaraita (https://sketchfab.com/paskaraita)",
      "license": "CC-BY-4.0 (http://creativecommons.org/licenses/by/4.0/)",
      "source": "https://sketchfab.com/3d-models/toilet-adb3b931f3ef4941830eea9705657a3d",
      "title": "Toilet"
    },
    "generator": "Sketchfab-8.32.0",
    "version": "2.0"
  },
  "bufferViews": [
    {
      "buffer": 0,
      "byteLength": 137400,
      "byteOffset": 0,
      "name": "floatBufferViews",
      "target": 34963
    },
    {
      "buffer": 0,
      "byteLength": 51744,
      "byteOffset": 137400,
      "byteStride": 8,
      "name": "floatBufferViews",
      "target": 34962
    },
    {
      "buffer": 0,
      "byteLength": 155232,
      "byteOffset": 189144,
      "byteStride": 12,
      "name": "floatBufferViews",
      "target": 34962
    },
    {
      "buffer": 0,
      "byteLength": 103488,
      "byteOffset": 344376,
      "byteStride": 16,
      "name": "floatBufferViews",
      "target": 34962
    }
  ],
  "buffers": [
    {
      "byteLength": 447864,
      "uri": "scene.bin"
    }
  ],
  "images": [
    {
      "uri": "textures/02___Default_baseColor.jpeg"
    },
    {
      "uri": "textures/02___Default_metallicRoughness.png"
    },
    {
      "uri": "textures/02___Default_normal.png"
    },
    {
      "uri": "textures/01___Default_baseColor.jpeg"
    },
    {
      "uri": "textures/01___Default_metallicRoughness.png"
    },
    {
      "uri": "textures/01___Default_normal.png"
    }
  ],
  "materials": [
    {
      "doubleSided": true,
      "name": "02___Default",
      "normalTexture": {
        "index": 2,
        "scale": 1,
        "texCoord": 0
      },
      "occlusionTexture": {
        "index": 1,
        "strength": 1,
        "texCoord": 0
      },
      "pbrMetallicRoughness": {
        "baseColorFactor": [
          1,
          1,
          1,
          1
        ],
        "baseColorTexture": {
          "index": 0,
          "texCoord": 0
        },
        "metallicFactor": 1,
        "metallicRoughnessTexture": {
          "index": 1,
          "texCoord": 0
        },
        "roughnessFactor": 1
      }
    },
    {
      "doubleSided": true,
      "name": "01___Default",
      "normalTexture": {
        "index": 5,
        "scale": 1,
        "texCoord": 0
      },
      "occlusionTexture": {
        "index": 4,
        "strength": 1,
        "texCoord": 0
      },
      "pbrMetallicRoughness": {
        "baseColorFactor": [
          1,
          1,
          1,
          1
        ],
        "baseColorTexture": {
          "index": 3,
          "texCoord": 0
        },
        "metallicFactor": 1,
        "metallicRoughnessTexture": {
          "index": 4,
          "texCoord": 0
        },
        "roughnessFactor": 1
      }
    }
  ],
  "meshes": [
    {
      "name": "defaultMaterial",
      "primitives": [
        {
          "attributes": {
            "NORMAL": 1,
            "POSITION": 0,
            "TANGENT": 2,
            "TEXCOORD_0": 3
          },
          "indices": 4,
          "material": 1,
          "mode": 4
        }
      ]
    },
    {
      "name": "defaultMaterial",
      "primitives": [
        {
          "attributes": {
            "NORMAL": 6,
            "POSITION": 5,
            "TANGENT": 7,
            "TEXCOORD_0": 8
          },
          "indices": 9,
          "material": 0,
          "mode": 4
        }
      ]
    }
  ],
  "nodes": [
    {
      "children": [
        1
      ],
      "name": "RootNode (gltf orientation matrix)",
      "rotation": [
        -0.70710678118654746,
        -0,
        -0,
        0.70710678118654757
      ]
    },
    {
      "children": [
        2
      ],
      "matrix": [
        -2.2204460492503131e-16,
        -1,
        1.6081226229577292e-16,
        0,
        1,
        -2.2204460492503131e-16,
        -1.6081226229577292e-16,
        0,
        1.6081226229577292e-16,
        1.6081226229577292e-16,
        1,
        0,
        8.3446502685546875e-07,
        4.8177639655477833e-07,
        1.6433692184847359e-09,
        1
      ],
      "name": "RootNode (model correction matrix)"
    },
    {
      "children": [
        3,
        5
      ],
      "matrix": [
        1,
        0,
        0,
        0,
        0,
        -4.3711390063094768e-08,
        0.999999999999999,
        0,
        0,
        -0.999999999999999,
        -4.3711390063094768e-08,
        0,
        0,
        0,
        0,
        1
      ],
      "name": "Collada visual scene group"
    },
    {
      "children": [
        4
      ],
      "name": "Base_LP"
    },
    {
      "mesh": 0,
      "name": "defaultMaterial"
    },
    {
      "children": [
        6
      ],
      "name": "Seat_LP"
    },
    {
      "mesh": 1,
      "name": "defaultMaterial"
    }
  ],
  "samplers": [
    {
      "magFilter": 9729,
      "minFilter": 9987,
      "wrapS": 10497,
      "wrapT": 10497
    }
  ],
  "scene": 0,
  "scenes": [
    {
      "name": "OSG_Scene",
      "nodes": [
        0
      ]
    }
  ],
  "textures": [
    {
      "sampler": 0,
      "source": 0
    },
    {
      "sampler": 0,
      "source": 1
    },
    {
      "sampler": 0,
      "source": 2
    },
    {
      "sampler": 0,
      "source": 3
    },
    {
      "sampler": 0,
      "source": 4
    },
    {
      "sampler": 0,
      "source": 5
    }
  ]
}

