{
  "accessors": [
    {
      "bufferView": 2,
      "componentType": 5126,
      "count": 152,
      "max": [
        0.59999996423721313,
        0.7855830192565918,
        0.36499997973442078
      ],
      "min": [
        -0.59999996423721313,
        -0.00044940316001884639,
        -0.36499997973442078
      ],
      "type": "VEC3"
    },
    {
      "bufferView": 2,
      "byteOffset": 1824,
      "componentType": 5126,
      "count": 152,
      "max": [
        1,
        1,
        1
      ],
      "min": [
        -1,
        -1,
        -1
      ],
      "type": "VEC3"
    },
    {
      "bufferView": 1,
      "componentType": 5126,
      "count": 152,
      "max": [
        0.99289608001708984,
        0.98806053400039673
      ],
      "min": [
        0.00015882057778071612,
        0.00015882057778071612
      ],
      "type": "VEC2"
    },
    {
      "bufferView": 0,
      "componentType": 5125,
      "count": 228,
      "max": [
        151
      ],
      "min": [
        0
      ],
      "type": "SCALAR"
    },
    {
      "bufferView": 2,
      "byteOffset": 3648,
      "componentType": 5126,
      "count": 198,
      "max": [
        0.21999984979629517,
        0.38838374614715576,
        0.17234456539154053
      ],
      "min": [
        -0.22000013291835785,
        -0.14428633451461792,
        -0.39309060573577881
      ],
      "type": "VEC3"
    },
    {
      "bufferView": 2,
      "byteOffset": 6024,
      "componentType": 5126,
      "count": 198,
      "max": [
        0.99604552984237671,
        0.99927282333374023,
        0.97327297925949097
      ],
      "min": [
        -0.99604552984237671,
        -0.99951159954071045,
        -0.89165925979614258
      ],
      "type": "VEC3"
    },
    {
      "bufferView": 1,
      "byteOffset": 1216,
      "componentType": 5126,
      "count": 198,
      "max": [
        0.99990254640579224,
        1.0037883520126343
      ],
      "min": [
        7.2223119786940515e-05,
        -0.00095415115356445312
      ],
      "type": "VEC2"
    },
    {
      "bufferView": 0,
      "byteOffset": 912,
      "componentType": 5125,
      "count": 756,
      "max": [
        197
      ],
      "min": [
        0
      ],
      "type": "SCALAR"
    },
    {
      "bufferView": 2,
      "byteOffset": 8400,
      "componentType": 5126,
      "count": 80,
      "max": [
        0.21192952990531921,
        0.19733151793479919,
        0.25265800952911377
      ],
      "min": [
        -0.21192960441112518,
        -0.19733139872550964,
        -0.25265824794769287
      ],
      "type": "VEC3"
    },
    {
      "bufferView": 2,
      "byteOffset": 9360,
      "componentType": 5126,
      "count": 80,
      "max": [
        1,
        0,
        1
      ],
      "min": [
        -1,
        -1,
        -1
      ],
      "type": "VEC3"
    },
    {
      "bufferView": 1,
      "byteOffset": 2800,
      "componentType": 5126,
      "count": 80,
      "max": [
        0.625,
        1
      ],
      "min": [
        0.125,
        0
      ],
      "type": "VEC2"
    },
    {
      "bufferView": 0,
      "byteOffset": 3936,
      "componentType": 5125,
      "count": 120,
      "max": [
        79
      ],
      "min": [
        0
      ],
      "type": "SCALAR"
    },
    {
      "bufferView": 2,
      "byteOffset": 10320,
      "componentType": 5126,
      "count": 198,
      "max": [
        0.21999984979629517,
        0.38838374614715576,
        0.17234456539154053
      ],
      "min": [
        -0.22000013291835785,
        -0.14428633451461792,
        -0.39309060573577881
      ],
      "type": "VEC3"
    },
    {
      "bufferView": 2,
      "byteOffset": 12696,
      "componentType": 5126,
      "count": 198,
      "max": [
        0.99604552984237671,
        0.99927282333374023,
        0.97327297925949097
      ],
      "min": [
        -0.99604552984237671,
        -0.99951159954071045,
        -0.89165925979614258
      ],
      "type": "VEC3"
    },
    {
      "bufferView": 1,
      "byteOffset": 3440,
      "componentType": 5126,
      "count": 198,
      "max": [
        0.99990254640579224,
        1.0037883520126343
      ],
      "min": [
        7.2223119786940515e-05,
        -0.00095415115356445312
      ],
      "type": "VEC2"
    },
    {
      "bufferView": 0,
      "byteOffset": 4416,
      "componentType": 5125,
      "count": 756,
      "max": [
        197
      ],
      "min": [
        0
      ],
      "type": "SCALAR"
    },
    {
      "bufferView": 2,
      "byteOffset": 15072,
      "componentType": 5126,
      "count": 80,
      "max": [
        0.21192952990531921,
        0.19733151793479919,
        0.25265800952911377
      ],
      "min": [
        -0.21192960441112518,
        -0.19733139872550964,
        -0.25265824794769287
      ],
      "type": "VEC3"
    },
    {
      "bufferView": 2,
      "byteOffset": 16032,
      "componentType": 5126,
      "count": 80,
      "max": [
        1,
        0,
        1
      ],
      "min": [
        -1,
        -1,
        -1
      ],
      "type": "VEC3"
    },
    {
      "bufferView": 1,
      "byteOffset": 5024,
      "componentType": 5126,
      "count": 80,
      "max": [
        0.625,
        1
      ],
      "min": [
        0.125,
        0
      ],
      "type": "VEC2"
    },
    {
      "bufferView": 0,
      "byteOffset": 7440,
      "componentType": 5125,
      "count": 120,
      "max": [
        79
      ],
      "min": [
        0
      ],
      "type": "SCALAR"
    },
    {
      "bufferView": 2,
      "byteOffset": 16992,
      "componentType": 5126,
      "count": 198,
      "max": [
        0.21999984979629517,
        0.38838374614715576,
        0.17234456539154053
      ],
      "min": [
        -0.22000013291835785,
        -0.14428633451461792,
        -0.39309060573577881
      ],
      "type": "VEC3"
    },
    {
      "bufferView": 2,
      "byteOffset": 19368,
      "componentType": 5126,
      "count": 198,
      "max": [
        0.99604552984237671,
        0.99927282333374023,
        0.97327297925949097
      ],
      "min": [
        -0.99604552984237671,
        -0.99951159954071045,
        -0.89165925979614258
      ],
      "type": "VEC3"
    },
    {
      "bufferView": 1,
      "byteOffset": 5664,
      "componentType": 5126,
      "count": 198,
      "max": [
        0.99990254640579224,
        1.0037883520126343
      ],
      "min": [
        7.2223119786940515e-05,
        -0.00095415115356445312
      ],
      "type": "VEC2"
    },
    {
      "bufferView": 0,
      "byteOffset": 7920,
      "componentType": 5125,
      "count": 756,
      "max": [
        197
      ],
      "min": [
        0
      ],
      "type": "SCALAR"
    },
    {
      "bufferView": 2,
      "byteOffset": 21744,
      "componentType": 5126,
      "count": 80,
      "max": [
        0.21192952990531921,
        0.19733151793479919,
        0.25265800952911377
      ],
      "min": [
        -0.21192960441112518,
        -0.19733139872550964,
        -0.25265824794769287
      ],
      "type": "VEC3"
    },
    {
      "bufferView": 2,
      "byteOffset": 22704,
      "componentType": 5126,
      "count": 80,
      "max": [
        1,
        0,
        1
      ],
      "min": [
        -1,
        -1,
        -1
      ],
      "type": "VEC3"
    },
    {
      "bufferView": 1,
      "byteOffset": 7248,
      "componentType": 5126,
      "count": 80,
      "max": [
        0.625,
        1
      ],
      "min": [
        0.125,
        0
      ],
      "type": "VEC2"
    },
    {
      "bufferView": 0,
      "byteOffset": 10944,
      "componentType": 5125,
      "count": 120,
      "max": [
        79
      ],
      "min": [
        0
      ],
      "type": "SCALAR"
    },
    {
      "bufferView": 2,
      "byteOffset": 23664,
      "componentType": 5126,
      "count": 198,
      "max": [
        0.21999984979629517,
        0.38838374614715576,
        0.17234456539154053
      ],
      "min": [
        -0.22000013291835785,
        -0.14428633451461792,
        -0.39309060573577881
      ],
      "type": "VEC3"
    },
    {
      "bufferView": 2,
      "byteOffset": 26040,
      "componentType": 5126,
      "count": 198,
      "max": [
        0.99604552984237671,
        0.99927282333374023,
        0.97327297925949097
      ],
      "min": [
        -0.99604552984237671,
        -0.99951159954071045,
        -0.89165925979614258
      ],
      "type": "VEC3"
    },
    {
      "bufferView": 1,
      "byteOffset": 7888,
      "componentType": 5126,
      "count": 198,
      "max": [
        0.99990254640579224,
        1.0037883520126343
      ],
      "min": [
        7.2223119786940515e-05,
        -0.00095415115356445312
      ],
      "type": "VEC2"
    },
    {
      "bufferView": 0,
      "byteOffset": 11424,
      "componentType": 5125,
      "count": 756,
      "max": [
        197
      ],
      "min": [
        0
      ],
      "type": "SCALAR"
    },
    {
      "bufferView": 2,
      "byteOffset": 28416,
      "componentType": 5126,
      "count": 80,
      "max": [
        0.21192952990531921,
        0.19733151793479919,
        0.25265800952911377
      ],
      "min": [
        -0.21192960441112518,
        -0.19733139872550964,
        -0.25265824794769287
      ],
      "type": "VEC3"
    },
    {
      "bufferView": 2,
      "byteOffset": 29376,
      "componentType": 5126,
      "count": 80,
      "max": [
        1,
        0,
        1
      ],
      "min": [
        -1,
        -1,
        -1
      ],
      "type": "VEC3"
    },
    {
      "bufferView": 1,
      "byteOffset": 9472,
      "componentType": 5126,
      "count": 80,
      "max": [
        0.625,
        1
      ],
      "min": [
        0.125,
        0
      ],
      "type": "VEC2"
    },
    {
      "bufferView": 0,
      "byteOffset": 14448,
      "componentType": 5125,
      "count": 120,
      "max": [
        79
      ],
      "min": [
        0
      ],
      "type": "SCALAR"
    }
  ],
  "asset": {
    "extras": {
      "author": "DKDTheGreat1 (https://sketchfab.com/DKDTheGreat1)",
      "license": "CC-BY-4.0 (http://creativecommons.org/licenses/by/4.0/)",
      "source": "https://sketchfab.com/3d-models/dining-table-4db08c2a400246e9870961c50c22b25e",
      "title": "Dining Table"
    },
    "generator": "Sketchfab-7.48.0",
    "version": "2.0"
  },
  "bufferViews": [
    {
      "buffer": 0,
      "byteLength": 14928,
      "byteOffset": 0,
      "name": "floatBufferViews",
      "target": 34963
    },
    {
      "buffer": 0,
      "byteLength": 10112,
      "byteOffset": 14928,
      "byteStride": 8,
      "name": "floatBufferViews",
      "target": 34962
    },
    {
      "buffer": 0,
      "byteLength": 30336,
      "byteOffset": 25040,
      "byteStride": 12,
      "name": "floatBufferViews",
      "target": 34962
    }
  ],
  "buffers": [
    {
      "byteLength": 55376,
      "uri": "scene.bin"
    }
  ],
  "images": [
    {
      "uri": "textures/Wood_baseColor.jpeg"
    },
    {
      "uri": "textures/Material_baseColor.jpeg"
    }
  ],
  "materials": [
    {
      "doubleSided": true,
      "emissiveFactor": [
        0,
        0,
        0
      ],
      "name": "Wood",
      "pbrMetallicRoughness": {
        "baseColorFactor": [
          1,
          1,
          1,
          1
        ],
        "baseColorTexture": {
          "index": 0,
          "texCoord": 0
        },
        "metallicFactor": 0,
        "roughnessFactor": 0.40179924239999998
      }
    },
    {
      "doubleSided": true,
      "emissiveFactor": [
        0,
        0,
        0
      ],
      "name": "Material",
      "pbrMetallicRoughness": {
        "baseColorFactor": [
          1,
          1,
          1,
          1
        ],
        "baseColorTexture": {
          "index": 1,
          "texCoord": 0
        },
        "metallicFactor": 0,
        "roughnessFactor": 0.359375
      }
    }
  ],
  "meshes": [
    {
      "primitives": [
        {
          "attributes": {
            "NORMAL": 1,
            "POSITION": 0,
            "TEXCOORD_0": 2
          },
          "indices": 3,
          "material": 0,
          "mode": 4
        }
      ]
    },
    {
      "primitives": [
        {
          "attributes": {
            "NORMAL": 5,
            "POSITION": 4,
            "TEXCOORD_0": 6
          },
          "indices": 7,
          "material": 1,
          "mode": 4
        }
      ]
    },
    {
      "primitives": [
        {
          "attributes": {
            "NORMAL": 9,
            "POSITION": 8,
            "TEXCOORD_0": 10
          },
          "indices": 11,
          "material": 0,
          "mode": 4
        }
      ]
    },
    {
      "primitives": [
        {
          "attributes": {
            "NORMAL": 13,
            "POSITION": 12,
            "TEXCOORD_0": 14
          },
          "indices": 15,
          "material": 1,
          "mode": 4
        }
      ]
    },
    {
      "primitives": [
        {
          "attributes": {
            "NORMAL": 17,
            "POSITION": 16,
            "TEXCOORD_0": 18
          },
          "indices": 19,
          "material": 0,
          "mode": 4
        }
      ]
    },
    {
      "primitives": [
        {
          "attributes": {
            "NORMAL": 21,
            "POSITION": 20,
            "TEXCOORD_0": 22
          },
          "indices": 23,
          "material": 1,
          "mode": 4
        }
      ]
    },
    {
      "primitives": [
        {
          "attributes": {
            "NORMAL": 25,
            "POSITION": 24,
            "TEXCOORD_0": 26
          },
          "indices": 27,
          "material": 0,
          "mode": 4
        }
      ]
    },
    {
      "primitives": [
        {
          "attributes": {
            "NORMAL": 29,
            "POSITION": 28,
            "TEXCOORD_0": 30
          },
          "indices": 31,
          "material": 1,
          "mode": 4
        }
      ]
    },
    {
      "primitives": [
        {
          "attributes": {
            "NORMAL": 33,
            "POSITION": 32,
            "TEXCOORD_0": 34
          },
          "indices": 35,
          "material": 0,
          "mode": 4
        }
      ]
    }
  ],
  "nodes": [
    {
      "children": [
        1
      ],
      "name": "RootNode (gltf orientation matrix)",
      "rotation": [
        -0.70710678118654746,
        -0,
        -0,
        0.70710678118654757
      ]
    },
    {
      "children": [
        2
      ],
      "name": "RootNode (model correction matrix)"
    },
    {
      "children": [
        3
      ],
      "name": "root"
    },
    {
      "children": [
        4,
        6,
        10,
        14,
        18
      ],
      "matrix": [
        1,
        0,
        0,
        0,
        0,
        2.2204460492503131e-16,
        1,
        0,
        0,
        -1,
        2.2204460492503131e-16,
        0,
        0,
        0,
        0,
        1
      ],
      "name": "GLTF_SceneRootNode"
    },
    {
      "children": [
        5
      ],
      "name": "Table_1"
    },
    {
      "mesh": 0,
      "name": ""
    },
    {
      "children": [
        7,
        8
      ],
      "matrix": [
        1,
        0,
        0,
        0,
        0,
        1,
        0,
        0,
        0,
        0,
        1,
        0,
        -0.26658019423484802,
        0.53478336334228516,
        0.5081251859664917,
        1
      ],
      "name": "ChairSeat1_3"
    },
    {
      "mesh": 1,
      "name": ""
    },
    {
      "children": [
        9
      ],
      "matrix": [
        1,
        0,
        0,
        0,
        0,
        1,
        0,
        0,
        0,
        0,
        1,
        0,
        0,
        -0.33562737703323364,
        -0.13071203231811523,
        1
      ],
      "name": "ChairLegs1_2"
    },
    {
      "mesh": 2,
      "name": ""
    },
    {
      "children": [
        11,
        12
      ],
      "matrix": [
        1,
        0,
        0,
        0,
        0,
        1,
        0,
        0,
        0,
        0,
        1,
        0,
        0.26685145497322083,
        0.53478336334228516,
        0.5081251859664917,
        1
      ],
      "name": "ChairSeat2_5"
    },
    {
      "mesh": 3,
      "name": ""
    },
    {
      "children": [
        13
      ],
      "matrix": [
        1,
        0,
        0,
        0,
        0,
        1,
        0,
        0,
        0,
        0,
        1,
        0,
        0,
        -0.33562737703323364,
        -0.13071203231811523,
        1
      ],
      "name": "ChairLegs2_4"
    },
    {
      "mesh": 4,
      "name": ""
    },
    {
      "children": [
        15,
        16
      ],
      "matrix": [
        -0.99999999999994671,
        0,
        3.2584136988588439e-07,
        0,
        0,
        1,
        0,
        0,
        -3.2584136988588439e-07,
        0,
        -0.99999999999994671,
        0,
        0.26685145497322083,
        0.53478336334228516,
        -0.45032796263694763,
        1
      ],
      "name": "ChairSeat3_7"
    },
    {
      "mesh": 5,
      "name": ""
    },
    {
      "children": [
        17
      ],
      "matrix": [
        1,
        0,
        0,
        0,
        0,
        1,
        0,
        0,
        0,
        0,
        1,
        0,
        0,
        -0.33562737703323364,
        -0.13071206212043762,
        1
      ],
      "name": "ChairLegs3_6"
    },
    {
      "mesh": 6,
      "name": ""
    },
    {
      "children": [
        19,
        20
      ],
      "matrix": [
        -0.99999999999994671,
        0,
        3.2584136988588439e-07,
        0,
        0,
        1,
        0,
        0,
        -3.2584136988588439e-07,
        0,
        -0.99999999999994671,
        0,
        -0.26658019423484802,
        0.53478336334228516,
        -0.45032796263694763,
        1
      ],
      "name": "ChairSeat4_9"
    },
    {
      "mesh": 7,
      "name": ""
    },
    {
      "children": [
        21
      ],
      "matrix": [
        1,
        0,
        0,
        0,
        0,
        1,
        0,
        0,
        0,
        0,
        1,
        0,
        0,
        -0.33562737703323364,
        -0.13071206212043762,
        1
      ],
      "name": "ChairLegs4_8"
    },
    {
      "mesh": 8,
      "name": ""
    }
  ],
  "samplers": [
    {
      "magFilter": 9729,
      "minFilter": 9987,
      "wrapS": 10497,
      "wrapT": 10497
    }
  ],
  "scene": 0,
  "scenes": [
    {
      "name": "OSG_Scene",
      "nodes": [
        0
      ]
    }
  ],
  "textures": [
    {
      "sampler": 0,
      "source": 0
    },
    {
      "sampler": 0,
      "source": 1
    }
  ]
}

