{
  "accessors": [
    {
      "bufferView": 2,
      "componentType": 5126,
      "count": 92,
      "max": [
        1.0000070333480835,
        0.4131225049495697,
        1.0143674612045288
      ],
      "min": [
        -0.9999929666519165,
        -0.17572009563446045,
        -0.98563247919082642
      ],
      "type": "VEC3"
    },
    {
      "bufferView": 2,
      "byteOffset": 1104,
      "componentType": 5126,
      "count": 92,
      "max": [
        0.98078542947769165,
        1,
        0.98078566789627075
      ],
      "min": [
        -0.98078542947769165,
        -0.99993610382080078,
        -0.98078536987304688
      ],
      "type": "VEC3"
    },
    {
      "bufferView": 1,
      "componentType": 5126,
      "count": 92,
      "max": [
        0.875,
        1
      ],
      "min": [
        0.125,
        0.016325158998370171
      ],
      "type": "VEC2"
    },
    {
      "bufferView": 0,
      "componentType": 5125,
      "count": 198,
      "max": [
        91
      ],
      "min": [
        0
      ],
      "type": "SCALAR"
    },
    {
      "bufferView": 2,
      "byteOffset": 2208,
      "componentType": 5126,
      "count": 88,
      "max": [
        0.69448918104171753,
        -0.16699677705764771,
        0.8161359429359436
      ],
      "min": [
        -0.69447511434555054,
        -0.34472286701202393,
        -0.78740090131759644
      ],
      "type": "VEC3"
    },
    {
      "bufferView": 2,
      "byteOffset": 3264,
      "componentType": 5126,
      "count": 88,
      "max": [
        1,
        0,
        1
      ],
      "min": [
        -1,
        -1,
        -1
      ],
      "type": "VEC3"
    },
    {
      "bufferView": 1,
      "byteOffset": 736,
      "componentType": 5126,
      "count": 88,
      "max": [
        0.57692855596542358,
        0.95192861557006836
      ],
      "min": [
        0.42307144403457642,
        0.79807144403457642
      ],
      "type": "VEC2"
    },
    {
      "bufferView": 0,
      "byteOffset": 792,
      "componentType": 5125,
      "count": 150,
      "max": [
        87
      ],
      "min": [
        0
      ],
      "type": "SCALAR"
    },
    {
      "bufferView": 2,
      "byteOffset": 4320,
      "componentType": 5126,
      "count": 72,
      "max": [
        0.56371599435806274,
        0.15801805257797241,
        0.73262357711791992
      ],
      "min": [
        -0.56371599435806274,
        -0.13192647695541382,
        -0.58495581150054932
      ],
      "type": "VEC3"
    },
    {
      "bufferView": 2,
      "byteOffset": 5184,
      "componentType": 5126,
      "count": 72,
      "max": [
        1,
        0,
        1
      ],
      "min": [
        -1,
        -0.99194025993347168,
        -1
      ],
      "type": "VEC3"
    },
    {
      "bufferView": 1,
      "byteOffset": 1440,
      "componentType": 5126,
      "count": 72,
      "max": [
        0.57132953405380249,
        0.94546455144882202
      ],
      "min": [
        0.42867046594619751,
        0.80453544855117798
      ],
      "type": "VEC2"
    },
    {
      "bufferView": 0,
      "byteOffset": 1392,
      "componentType": 5125,
      "count": 120,
      "max": [
        71
      ],
      "min": [
        0
      ],
      "type": "SCALAR"
    }
  ],
  "asset": {
    "extras": {
      "author": "SKR Games (https://sketchfab.com/skrypious2)",
      "license": "CC-BY-4.0 (http://creativecommons.org/licenses/by/4.0/)",
      "source": "https://sketchfab.com/3d-models/light-switch-a45fb4b8dce9416eabf12679af914b99",
      "title": "Light Switch"
    },
    "generator": "Sketchfab-8.64.0",
    "version": "2.0"
  },
  "bufferViews": [
    {
      "buffer": 0,
      "byteLength": 1872,
      "byteOffset": 0,
      "name": "floatBufferViews",
      "target": 34963
    },
    {
      "buffer": 0,
      "byteLength": 2016,
      "byteOffset": 1872,
      "byteStride": 8,
      "name": "floatBufferViews",
      "target": 34962
    },
    {
      "buffer": 0,
      "byteLength": 6048,
      "byteOffset": 3888,
      "byteStride": 12,
      "name": "floatBufferViews",
      "target": 34962
    }
  ],
  "buffers": [
    {
      "byteLength": 9936,
      "uri": "scene.bin"
    }
  ],
  "materials": [
    {
      "doubleSided": true,
      "emissiveFactor": [
        0,
        0,
        0
      ],
      "name": "Mat1",
      "pbrMetallicRoughness": {
        "baseColorFactor": [
          0.67384699999999997,
          0.67384699999999997,
          0.67384699999999997,
          1
        ],
        "metallicFactor": 0,
        "roughnessFactor": 0.83494186852947838
      }
    },
    {
      "doubleSided": true,
      "emissiveFactor": [
        0,
        0,
        0
      ],
      "name": "Mat2",
      "pbrMetallicRoughness": {
        "baseColorFactor": [
          0.50706799999999996,
          0.50706799999999996,
          0.50706799999999996,
          1
        ],
        "metallicFactor": 0,
        "roughnessFactor": 0.88661614827851365
      }
    },
    {
      "doubleSided": true,
      "emissiveFactor": [
        0,
        0,
        0
      ],
      "name": "Mat3",
      "pbrMetallicRoughness": {
        "baseColorFactor": [
          0.54885200000000001,
          0.54885200000000001,
          0.54885200000000001,
          1
        ],
        "metallicFactor": 0,
        "roughnessFactor": 0.87727296184132852
      }
    }
  ],
  "meshes": [
    {
      "name": "SwitchBase_Mat1_0",
      "primitives": [
        {
          "attributes": {
            "NORMAL": 1,
            "POSITION": 0,
            "TEXCOORD_0": 2
          },
          "indices": 3,
          "material": 0,
          "mode": 4
        }
      ]
    },
    {
      "name": "SwitchBase_Mat2_0",
      "primitives": [
        {
          "attributes": {
            "NORMAL": 5,
            "POSITION": 4,
            "TEXCOORD_0": 6
          },
          "indices": 7,
          "material": 1,
          "mode": 4
        }
      ]
    },
    {
      "name": "Switch_Mat3_0",
      "primitives": [
        {
          "attributes": {
            "NORMAL": 9,
            "POSITION": 8,
            "TEXCOORD_0": 10
          },
          "indices": 11,
          "material": 2,
          "mode": 4
        }
      ]
    }
  ],
  "nodes": [
    {
      "children": [
        1
      ],
      "name": "RootNode (gltf orientation matrix)",
      "rotation": [
        -0.70710678118654746,
        -0,
        -0,
        0.70710678118654757
      ]
    },
    {
      "children": [
        2
      ],
      "name": "RootNode (model correction matrix)"
    },
    {
      "children": [
        3
      ],
      "matrix": [
        1,
        0,
        0,
        0,
        0,
        0,
        1,
        0,
        0,
        -1,
        0,
        0,
        0,
        0,
        0,
        1
      ],
      "name": "bd853b39c3aa48caac681d4a05e38ac7.fbx"
    },
    {
      "children": [
        4,
        7
      ],
      "name": "RootNode"
    },
    {
      "children": [
        5,
        6
      ],
      "matrix": [
        240.00001525878906,
        0,
        0,
        0,
        0,
        -1.6292067939183141e-05,
        -99.999999999998678,
        0,
        0,
        299.99999999999602,
        -4.8876203817549424e-05,
        0,
        0,
        0,
        0,
        1
      ],
      "name": "SwitchBase"
    },
    {
      "mesh": 0,
      "name": "SwitchBase_Mat1_0"
    },
    {
      "mesh": 1,
      "name": "SwitchBase_Mat2_0"
    },
    {
      "children": [
        8
      ],
      "matrix": [
        240.00001525878906,
        0,
        0,
        0,
        0,
        -1.6292067939183141e-05,
        -99.999999999998678,
        0,
        0,
        299.99999999999602,
        -4.8876203817549424e-05,
        0,
        0.0016881919000297785,
        -17.839914321899414,
        46.281139373779297,
        1
      ],
      "name": "Switch"
    },
    {
      "mesh": 2,
      "name": "Switch_Mat3_0"
    }
  ],
  "scene": 0,
  "scenes": [
    {
      "name": "OSG_Scene",
      "nodes": [
        0
      ]
    }
  ]
}

