{
  "accessors": [
    {
      "bufferView": 2,
      "componentType": 5126,
      "count": 22155,
      "max": [
        78.670249938964844,
        30.253732681274414,
        76.975227355957031
      ],
      "min": [
        -77.146621704101562,
        -72.275535583496094,
        -1.4756759405136108
      ],
      "type": "VEC3"
    },
    {
      "bufferView": 2,
      "byteOffset": 265860,
      "componentType": 5126,
      "count": 22155,
      "max": [
        0.99979692697525024,
        0.99997806549072266,
        0.99999964237213135
      ],
      "min": [
        -0.99993640184402466,
        -0.99999988079071045,
        -0.99998807907104492
      ],
      "type": "VEC3"
    },
    {
      "bufferView": 1,
      "componentType": 5126,
      "count": 22155,
      "max": [
        0.97309601306915283,
        0.98499000072479248
      ],
      "min": [
        0.015010000206530094,
        0.0098440004512667656
      ],
      "type": "VEC2"
    },
    {
      "bufferView": 0,
      "componentType": 5125,
      "count": 120000,
      "max": [
        22154
      ],
      "min": [
        0
      ],
      "type": "SCALAR"
    }
  ],
  "asset": {
    "extras": {
      "author": "Laser Design (https://sketchfab.com/Laserdesign)",
      "license": "CC-BY-4.0 (http://creativecommons.org/licenses/by/4.0/)",
      "source": "https://sketchfab.com/3d-models/xbox-wireless-controller-3d-scan-data-a3279a520f2d4143863c118f50b23a2d",
      "title": "Xbox Wireless Controller 3D Scan Data"
    },
    "generator": "Sketchfab-8.42.0",
    "version": "2.0"
  },
  "bufferViews": [
    {
      "buffer": 0,
      "byteLength": 480000,
      "byteOffset": 0,
      "name": "floatBufferViews",
      "target": 34963
    },
    {
      "buffer": 0,
      "byteLength": 177240,
      "byteOffset": 480000,
      "byteStride": 8,
      "name": "floatBufferViews",
      "target": 34962
    },
    {
      "buffer": 0,
      "byteLength": 531720,
      "byteOffset": 657240,
      "byteStride": 12,
      "name": "floatBufferViews",
      "target": 34962
    }
  ],
  "buffers": [
    {
      "byteLength": 1188960,
      "uri": "scene.bin"
    }
  ],
  "extensionsRequired": [
    "KHR_materials_pbrSpecularGlossiness"
  ],
  "extensionsUsed": [
    "KHR_materials_pbrSpecularGlossiness"
  ],
  "images": [
    {
      "uri": "textures/material_0_diffuse.jpeg"
    }
  ],
  "materials": [
    {
      "doubleSided": true,
      "extensions": {
        "KHR_materials_pbrSpecularGlossiness": {
          "diffuseFactor": [
            0.78059089452823227,
            0.78059089452823227,
            0.78059089452823227,
            1
          ],
          "diffuseTexture": {
            "index": 0,
            "texCoord": 0
          },
          "glossinessFactor": 0.68009911287175084,
          "specularFactor": [
            0.026902532104621756,
            0.026902532104621756,
            0.026902532104621756
          ]
        }
      },
      "name": "material_0"
    }
  ],
  "meshes": [
    {
      "primitives": [
        {
          "attributes": {
            "NORMAL": 1,
            "POSITION": 0,
            "TEXCOORD_0": 2
          },
          "indices": 3,
          "material": 0,
          "mode": 4
        }
      ]
    }
  ],
  "nodes": [
    {
      "children": [
        1
      ],
      "name": "RootNode (gltf orientation matrix)",
      "rotation": [
        -0.70710678118654746,
        -0,
        -0,
        0.70710678118654757
      ]
    },
    {
      "children": [
        2
      ],
      "matrix": [
        1,
        -1.5542650917977485e-16,
        4.1269671960438505e-17,
        0,
        -1.2325951644078309e-32,
        -0.25663259625434875,
        -0.96650904417037964,
        0,
        1.6081226229577292e-16,
        0.96650904417037964,
        -0.25663259625434875,
        0,
        -6.106226635438361e-15,
        -62.888698577880859,
        27.130455017089844,
        1
      ],
      "name": "RootNode (model correction matrix)"
    },
    {
      "children": [
        3
      ],
      "name": "Xbox Wireless Controller mm.obj.cleaner.materialmerger.gles"
    },
    {
      "mesh": 0,
      "name": ""
    }
  ],
  "samplers": [
    {
      "magFilter": 9729,
      "minFilter": 9987,
      "wrapS": 10497,
      "wrapT": 10497
    }
  ],
  "scene": 0,
  "scenes": [
    {
      "name": "OSG_Scene",
      "nodes": [
        0
      ]
    }
  ],
  "textures": [
    {
      "sampler": 0,
      "source": 0
    }
  ]
}

